<?xml version="1.0" encoding="UTF-8" standalone="no"?>
<svg
   xmlns:dc="http://purl.org/dc/elements/1.1/"
   xmlns:cc="http://creativecommons.org/ns#"
   xmlns:rdf="http://www.w3.org/1999/02/22-rdf-syntax-ns#"
   xmlns:svg="http://www.w3.org/2000/svg"
   xmlns="http://www.w3.org/2000/svg"
   xmlns:sodipodi="http://sodipodi.sourceforge.net/DTD/sodipodi-0.dtd"
   xmlns:inkscape="http://www.inkscape.org/namespaces/inkscape"
   style="enable-background:new"
   version="1.1"
   id="svg2"
   height="1024"
   width="1024"
   sodipodi:docname="williamcanin-black.svg"
   inkscape:version="0.92.1 r">
  <sodipodi:namedview
     pagecolor="#ffffff"
     bordercolor="#666666"
     borderopacity="1"
     objecttolerance="10"
     gridtolerance="10"
     guidetolerance="10"
     inkscape:pageopacity="0"
     inkscape:pageshadow="2"
     inkscape:window-width="1366"
     inkscape:window-height="682"
     id="namedview74"
     showgrid="false"
     inkscape:zoom="0.32593203"
     inkscape:cx="579.83144"
     inkscape:cy="372.95829"
     inkscape:window-x="0"
     inkscape:window-y="31"
     inkscape:window-maximized="1"
     inkscape:current-layer="svg2" />
  <defs
     id="defs4">
    <filter
       id="filter7614"
       style="color-interpolation-filters:sRGB">
      <feBlend
         id="feBlend7616"
         in2="BackgroundImage"
         mode="darken" />
    </filter>
  </defs>
  <metadata
     id="metadata7">
    <rdf:RDF>
      <cc:Work
         rdf:about="">
        <dc:format>image/svg+xml</dc:format>
        <dc:type
           rdf:resource="http://purl.org/dc/dcmitype/StillImage" />
        <dc:title />
      </cc:Work>
    </rdf:RDF>
  </metadata>
  <g
     style="display:none"
     id="layer18">
    <path
       id="path7656"
       d="M 505.71484,61.142578 A 457.14301,457.14301 0 0 0 48.570312,518.28516 457.14301,457.14301 0 0 0 505.71484,975.42969 457.14301,457.14301 0 0 0 962.85742,518.28516 457.14301,457.14301 0 0 0 505.71484,61.142578 Z"
       style="fill:#ffffff;fill-opacity:1;stroke:#000000;stroke-width:3;stroke-miterlimit:4;stroke-dasharray:none;stroke-opacity:1" />
  </g>
  <g
     transform="translate(0,-28.362161)"
     style="display:inline"
     id="layer3">
    <path
       id="path3993"
       d="m 311.95639,619.20655 c -6.29464,-0.3125 -11.33928,-4.55357 -11.33928,-4.55357 -12.23573,-15.53867 -23.94583,-31.73437 -34.28572,-49.64285 -5.71932,-9.79557 -11.54687,-19.54248 -15,-30.35715 -2.70299,-13.10742 1.29322,-21.28349 15.71429,-21.78571 8.08481,1.35099 12.61905,5.23809 18.92857,7.85714 10.00429,32.97619 23.23555,65.50595 25.98214,98.48214 z"
       style="color:#000000;display:inline;overflow:visible;visibility:visible;fill:#ffcaca;fill-opacity:0.98823529;stroke:none;stroke-width:2.0999999;stroke-miterlimit:4;stroke-dasharray:none;stroke-opacity:1;marker:none;enable-background:accumulate" />
  </g>
  <g
     transform="translate(0,-28.362161)"
     style="display:inline"
     id="layer6">
    <path
       id="path4079"
       d="m 584.64285,676.6479 c 14.04343,5.24787 23.36774,21.50701 33.57143,35.71428 7.89663,13.91899 13.20494,32.36753 15.71428,55.71429 2.06444,14.04762 0.44853,28.09524 -2.85714,42.14286 16.94878,-25.57922 37.66033,-43.00579 58.57143,-60 -15.73358,-10.83531 -29.77645,-27.75715 -42.14286,-50.71429 -10.07357,-26.44594 -20.48568,-51.8763 -29.28571,-82.14286 z"
       style="color:#000000;display:inline;overflow:visible;visibility:visible;fill:#ecb5b5;fill-opacity:0.98823529;stroke:none;stroke-width:2;stroke-miterlimit:4;stroke-dasharray:none;stroke-opacity:1;marker:none;enable-background:accumulate" />
  </g>
  <g
     transform="translate(0,-28.362161)"
     style="display:inline;filter:url(#filter7614)"
     id="layer8">
    <path
       class="fil7 str7"
       d="m 690.2677,741.53987 c 0.1169,-2.97106 0.52559,-5.44695 2.5112,-6.79101 1.22639,-0.84886 2.628,1.34406 3.56238,1.7685 0.64242,0.35371 1.22642,0.56592 1.81041,0.14155 1.22639,-0.99038 -0.46721,0.70739 -0.81759,0.70739 -1.1096,0 -1.63521,-0.0706 -2.51122,-0.56594 -1.10958,-0.63663 -1.51839,-1.06107 -2.86159,0 -1.5184,1.20259 -1.5768,3.46626 -1.69359,4.73958 z"
       id="path89"
       style="fill:#fefefe;fill-rule:evenodd;stroke:#82b795;stroke-width:1.28548801" />
    <path
       class="fil7 str8"
       d="m 582.5521,997.01472 c -1.95871,-22.61909 -3.03632,-45.67873 -2.30876,-69.64096 0.33694,-27.12248 5.73225,-53.83447 15.76932,-80.87083 8.33464,-18.67762 21.55455,-35.95944 34.45729,-53.33189 l 59.76661,-51.78431 c 25.74494,11.86476 45.52193,27.34052 59.37455,46.42731 7.44904,10.39655 13.6348,20.31691 18.60083,30.47537 9.54,20.7534 9.80138,41.42744 10.19343,62.2999 0.65342,37.14185 2.43806,-3.1872 -0.13207,33.83563 -11.58231,1.8915 -72.28696,61.63228 -195.7212,82.55011 l 0,0 z"
       id="path91"
       style="opacity:1;fill:#232323;fill-opacity:1;fill-rule:evenodd;stroke:#373435;stroke-width:0.83152652;stroke-opacity:1" />
    <path
       class="fil20"
       d="m 681.91627,778.33017 c -20.69179,1.03172 -30.05755,16.66622 -40.16386,35.23714 -11.28246,20.75341 -12.41507,41.22904 -9.67069,55.19692 1.04548,5.31731 3.09288,9.96005 4.79179,14.84087 2.30876,6.54744 3.46845,46.43725 11.04819,54.8894 2.65726,2.97611 3.55507,3.88341 4.29099,41.09449 9.449,-0.36001 58.2964,-25.88066 68.14213,-29.61759 9.84495,-13.6504 -4.11195,-7.79646 3.2064,-37.51788 4.70466,-19.00742 9.01728,-37.0228 10.41125,-55.55405 1.26329,-16.54716 3.09287,-31.98326 -3.70274,-47.41934 -7.66687,-17.42017 -21.08385,-32.49913 -48.35346,-31.14996 z"
       id="path93"
       style="fill:#fcdad7;fill-rule:evenodd" />
    <path
       class="fil23"
       d="m 686.44669,786.54423 c -18.29591,0.95236 -26.57262,15.27738 -35.54632,32.30072 -10.01919,19.00742 -11.02111,37.77675 -8.5381,50.59386 0.9148,4.88082 2.70082,9.12674 4.22549,13.61075 2.00383,5.9919 4.83534,10.63463 11.54384,18.37252 4.74822,5.83317 -67.57225,16.9155 45.6881,55.00971 4.00767,1.34917 10.81138,-15.0108 19.43659,-46.9147 4.70466,-17.30112 7.97179,-33.92765 9.23508,-50.91132 1.08904,-15.198 2.70082,-29.3246 -3.31069,-43.45119 -6.79562,-15.95196 -18.6444,-29.80079 -42.77755,-28.57066 z"
       id="path103"
       style="fill:#fde6e1;fill-rule:evenodd" />
    <path
       id="path3032"
       d="m 275.35713,524.50504 c -2.21931,-2.80913 -1.41142,-8.0633 -11.78571,-4.28571 -4.90321,4.92798 -6.43181,10.9297 -3.92857,18.21428 6.23622,16.61729 15.12791,28.98583 22.85714,43.21429 5.66278,10.65937 10.71833,16.4609 16.07143,24.64286 l -1.07143,-6.78572 c -7.22264,-10.10554 -13.72246,-20.69296 -18.92857,-32.14286 -5.30097,-9.06741 -9.95204,-18.9147 -13.57143,-30 -0.60466,-4.29995 -0.17283,-8.04178 3.57143,-10 6.79775,-1.72995 6.3754,1.53864 9.28571,2.5 z"
       style="fill:#ff9b96;fill-opacity:1;stroke:none" />
  </g>
  <g
     transform="translate(0,-28.362161)"
     style="display:inline"
     id="layer14">
    <path
       id="path8214"
       d="m 641.42856,944.50507 c 49.06484,-15.43228 56.47215,8.79613 91.81853,-2.89304 -3.5244,-19.25338 0.18301,-40.91738 4.61004,-62.82124 2.48504,-24.90876 12.14046,-51.16662 2.14286,-73.57143 -8.26121,-18.51352 -26.34936,-36.4888 -46.42858,-39.28572 -16.5695,-2.30803 -33.72096,9.05087 -45.71428,20.71429 -14.80975,14.40238 -23.8068,35.32732 -27.14286,55.71428 -5.60582,34.25773 18.88798,67.62265 13.39068,103.27557 z"
       style="fill:#292929;fill-opacity:1;fill-rule:evenodd;stroke:#000000;stroke-width:1px;stroke-linecap:butt;stroke-linejoin:miter;stroke-opacity:0.35164837" />
    <path
       id="path8218"
       d="m 634.8861,933.24796 c 15.42061,-7.35788 32.03955,-6.94331 48.32817,-7.31432 16.14488,-0.36773 34.67324,10.2732 48.18211,5.06128"
       style="fill:none;fill-rule:evenodd;stroke:#000000;stroke-width:1px;stroke-linecap:round;stroke-linejoin:miter;stroke-opacity:0.56043958" />
  </g>
  <g
     transform="translate(0,-28.362161)"
     style="display:none"
     id="layer12">
    <path
       id="path7618"
       d="m 413.63269,666.88253 c 4.88075,-4.42804 22.30883,-7.21624 40,-6.42857 -6.96263,10.71428 -13.54531,20.83683 -15.77556,31.55111 -6.13779,-9.36768 -13.42557,-16.68708 -24.22444,-25.12254 z"
       style="fill:#000000;fill-opacity:0.63736267;fill-rule:evenodd;stroke:none;stroke-width:1px;stroke-linecap:butt;stroke-linejoin:miter;stroke-opacity:1" />
    <path
       id="path7620"
       d="m 631.20025,653.59707 c 17.51809,-7.79958 30.03522,-9.54702 47.52794,-46.39523 43.03105,0.62003 44.23035,-21.3092 53.53808,-57.57869 -14.12705,-5.10105 -52.45373,31.17763 -52.25309,-21.68239 -4.7766,-16.04332 -22.74017,-56.66695 19.42314,-100.79861 2.34351,-20.9199 3.98745,-39.34917 -16.98442,-70.63146 -0.87677,-24.86374 5.89436,-33.31154 -20.0446,-68.20016 -4.62593,-6.06091 -8.11893,-21.87672 -28.71756,-27.93763 26.30643,-12.44674 5.23656,-4.11555 36.73314,-8.7027 -25.31405,-18.36515 -68.80005,-36.69832 -103.22989,-21.55983 l 53.94779,-29.66208 c -18.33443,-8.95798 -57.00218,0.84603 -72.65048,13.37708 5.41079,-20.65262 -20.20686,-52.10126 -32.39667,-60.18202 5.54464,32.40912 -11.78367,42.55644 -27.64178,34.8354 -6.1493,-21.60223 -33.76818,-28.39974 -88.11966,-18.63091 l 31.79622,25.30458 c -29.20093,3.02313 -57.19611,0.17835 -98.54371,-17.97174 -19.0702,30.41355 3.62319,50.73633 27.59147,67.70035 -13.96548,-1.21249 -22.08755,-7.10777 -35.49894,-4.81444 0.0407,42.275 20.00263,7.64965 16.93014,19.68483 -14.36536,-5.06166 -52.02017,-26.06644 -86.67263,-2.67511 34.32595,8.14549 33.19147,23.7955 33.19147,23.7955 -26.60069,11.66355 -39.03822,47.2526 -54.86514,77.8325 -17.12239,38.14459 33.42445,59.05256 1.11167,83.74114 -1.68505,-0.84253 -15.96113,37.57495 8.71501,49.9159 -6.83893,-14.7382 12.34331,-1.75335 21.47318,-11.1686 2.31864,27.23071 5.72085,8.95991 -28.83141,29.43184 l 35.91734,20.81581 373.37264,84.42208 z"
       style="fill:#2a2a2a;fill-opacity:1;fill-rule:evenodd;stroke:none;stroke-width:1px;stroke-linecap:butt;stroke-linejoin:miter;stroke-opacity:1" />
    <path
       id="path6796"
       d="m 631.0088,659.22871 c 27.99333,15.48575 41.56724,10.78432 56.56854,8.08122 -21.95117,-7.87421 -44.11712,-15.55749 -42.4264,-44.44671 11.2438,-6.35079 22.49203,-12.66615 36.36549,2.0203 2.08829,-10.10152 9.58337,-20.20305 -6.06092,-30.30457 5.03612,-32.67625 32.82057,-51.44299 48.48733,-64.64977 -6.08243,0.9171 -9.09137,3.03046 -17.10824,-2.82125 -24.0315,-26.92325 20.89613,-42.0104 9.27212,-63.58268 -9.75163,8.29571 -35.42338,10.51385 -50.18203,1.28499 17.50932,-6.73435 51.70469,-29.07778 48.4217,-59.38236 -12.38855,8.52575 -28.97209,12.34221 -26.76905,-8.83883 7.95587,-18.51213 19.94082,-4.79157 30.30458,-4.04061 -7.62945,-13.52728 -5.0503,-35.98709 -32.32488,-32.32488 4.85114,-52.56527 -48.24539,-49.33578 -66.95723,-64.50618 28.91086,-16.42738 34.19077,-51.32465 25.54097,-74.89487 -14.19023,22.36772 -28.7188,51.42952 -45.45686,10.10152 2.42808,-22.22336 -19.7684,-31.31473 -49.49747,-53.53809 -0.29988,19.77866 19.80403,39.35442 -25.2538,29.29443 -26.6177,-28.07641 -24.668,-49.11053 -75.34303,-47.78354 21.62635,13.10621 10.62559,25.39009 -17.59101,43.74293 -31.82303,-12.20117 -29.21693,-9.50224 -71.46828,-6.06092 31.35661,10.14044 18.43824,7.40687 14.89974,28.28427 -36.63132,13.82905 -58.29149,32.64848 -70.71067,54.54825 -7.72748,14.09538 10.84504,32.93823 -80.81221,18.18275 18.48789,20.93963 15.86664,31.56961 42.42641,36.36549 -18.71222,11.10927 -29.10849,13.76005 -50.50763,6.06091 13.12217,17.61067 13.10308,36.50026 36.36549,36.36549 -32.8279,16.33159 -45.5166,28.83112 -43.43655,58.58885 36.19373,-39.87637 37.64267,-12.66865 47.47716,8.08122 -7.40778,8.08122 -10.77495,17.50931 -10.10152,28.28427 -18.99264,5.52172 -16.24701,14.6923 -13.89704,25.54967 20.34359,-26.82611 22.96322,0.81508 36.1204,2.7346 -6.88908,10.17432 -21.37554,10.23862 -16.16245,25.25381 18.36865,-17.75922 44.40668,71.47421 52.52794,76.77159 -3.53553,-45.12014 -21.54992,-160.61425 -6.06092,-190.91882 9.12394,30.3264 35.57823,-1.67645 49.49747,7.07107 -17.33649,-29.71458 -29.9324,-31.87002 1.01016,-53.53809 42.88136,-18.6377 43.65411,4.83321 62.62945,10.10153 -6.90704,-19.52962 -22.07962,-39.05923 12.12183,-58.58885 50.12832,-6.35504 65.88384,21.66272 90.91373,40.4061 2.43756,20.98809 15.32235,23.69352 28.28426,26.26397 -4.85263,-26.26954 8.66805,-26.29149 22.22336,-26.26397 -4.50551,27.61084 -15.13927,55.22167 -2.02031,82.83251 18.25196,-41.4256 24.38389,-22.25108 32.32488,-12.12183 -12.92463,23.94841 -24.57717,48.15124 -24.24366,74.75128 12.67018,-15.35421 25.50562,-31.47967 30.30458,-10.10152 -0.40882,30.70547 12.07104,70.00338 -18.18275,80.8122 2.6021,15.22795 4.35689,34.26879 12.12183,26.26397 8.75466,-25.3678 5.36645,-32.21717 14.12111,-36.22192 -8.11247,37.03893 8.8267,59.79214 22.24438,96.83107 z"
       style="display:inline;opacity:1;fill:#2a2a2a;fill-opacity:1;fill-rule:evenodd;stroke:none;stroke-width:1px;stroke-linecap:butt;stroke-linejoin:miter;stroke-opacity:1" />
  </g>
  <g
     transform="translate(0,-28.362161)"
     style="display:inline"
     id="layer7">
    <path
       id="path2998-1"
       d="m 433.7817,181.02619 c -7.06728,0.002 -14.15516,0.1636 -21.25,0.46875 9.0039,2.50173 18.3982,4.82594 22.84375,9.28125 -39.20462,3.49551 -72.29842,19.18591 -107.12502,31.4375 19.5898,-2.58632 34.68985,-3.60613 42.84377,-2.15625 -39.35913,20.14493 -64.40116,53.4385 -87.84377,80.8785 -14.06442,18.83841 -15.25256,37.92936 -19.41719,55 -5.9494,16.78614 -11.01251,24.10646 -13.45782,38.43401 -2.68889,9.09343 5.8902,68.88771 9.28126,82.125 5.59401,18.96276 15.34063,32.5638 21.08482,50.89286 0,0 8.29008,14.06393 12.16518,15.08035 -0.66847,-2.23986 -1.98381,-6.5336 -2.65625,-8.77232 -3.99038,-17.3924 -12.61625,-33.95591 -10,-52.66964 -0.1145,-27.22665 2.97782,-55.02135 18.59375,-83.59375 4.16546,-0.94734 8.09731,-2.20861 11.84375,-3.75 18.65431,-7.02261 20.90595,-13.5628 29.21875,-20.28125 5.87723,-5.87963 11.37655,-12.48363 16.78127,-19.53125 18.56718,-23.85265 49.0665,-22.13769 76.4375,-27.125 57.94454,-5.41591 60.8301,11.16856 77.84375,22.125 46.70213,-15.70321 48.50642,20.53629 67.875,36.4375 13.33758,43.48312 9.91276,74.07002 -1.4375,98.5625 15.14343,13.42844 22.21017,28.72073 25,45 l -10,33.5625 14.28125,2.15625 c 53.8651,-51.50495 80.1429,-120.31207 69.43322,-245.85977 -8.85092,-14.01022 -12.22683,-40.67342 -62.60311,-57.90197 -8.92798,-19.57841 -5.87921,-47.80078 -35.98636,-50.05077 -28.98525,-6.19275 -55.05428,-14.71312 -80.71875,-23.5625 -20.78193,-4.61311 -41.8294,-6.1936 -63.03125,-6.1875 z"
       style="display:inline;fill:#4e4e4e;fill-opacity:1;stroke:#060606;stroke-opacity:0.56043958" />
  </g>
  <g
     transform="translate(0,-28.362161)"
     style="display:inline"
     id="layer2">
    <path
       id="path2998"
       d="m 442.80071,185.96428 c -6.99521,-1.00674 -7.0123,-0.55069 -14.10714,-0.24554 9.0039,2.50173 16.96963,5.54023 21.41518,9.99554 -39.20462,3.49551 -86.94128,14.54305 -121.76786,26.79464 19.5898,-2.58632 45.40412,-5.39184 53.55804,-3.94196 -39.35911,20.14493 -67.25829,52.58679 -90.7009,80.02678 -10.27635,18.33333 -16.15811,33.09524 -21.08035,51.42857 -1.30654,15.35757 -10.74202,32.33562 -16.75875,47.02031 -6.26034,11.59343 8.35429,49.3674 11.74535,77.24755 1.3083,18.96276 9.98349,31.3138 15.72768,49.64286 0,0 7.96838,17.41083 11.84348,18.42725 -0.66847,-2.23986 -1.61135,-5.74272 -2.28379,-7.98144 -3.99038,-17.3924 -12.66701,-34.34369 -10.05076,-53.05742 -0.1145,-27.22665 3.4829,-58.05181 19.09883,-86.62421 4.16546,-0.94734 8.09731,-2.20861 11.84375,-3.75 l 11.58813,-4.75016 c 16.48383,-12.44562 29.00715,-28.01472 34.41187,-35.06234 20.76695,-20.99551 37.14073,-34.92305 63.17245,-39.73178 36.51597,-7.38019 73.59007,26.8058 90.60372,37.76224 46.70213,-15.70321 48.50642,20.53629 67.875,36.4375 13.33758,43.48312 9.91276,74.07002 -1.4375,98.5625 15.14343,13.42844 22.21017,28.72073 25,45 l -10.08929,34.09821 14.90625,9.29911 17.33929,-61.24107 c 8.3248,-10.05153 16.543,-20.19363 33.28125,-19.8125 10.43916,-27.94042 15.64899,-77.61584 16.12817,-86.55235 1.54801,-29.27945 4.88956,-56.23834 -2.8871,-82.44765 -5.31538,-13.50514 -13.9005,-31.70894 -64.27678,-48.9375 -8.92798,-19.5784 6.90179,-42.75001 -23.20536,-45 -28.98525,-6.19275 -42.91142,-15.07026 -68.57589,-23.91964 -20.78193,-4.61311 -47.54369,-15.12217 -72.31697,-18.6875 z"
       style="fill:#38312f;fill-opacity:1;stroke:none" />
  </g>
  <g
     style="display:none"
     id="layer16">
    <path
       id="path3833"
       d="m 518.94534,944.31675 9.19078,17.52741 -1.38729,-12.16515 3.98846,7.20303 c -0.24959,-4.41606 -0.59008,-8.80815 -2.42776,-12.80539 -1.6253,-3.39406 -3.47179,-6.46147 -6.24279,-8.16345 -3.61932,-1.94445 -6.7073,-2.37296 -7.8035,2.88121 -1.06551,5.86171 0.91533,9.67837 2.25434,13.92588 1.48289,4.06913 4.28047,7.46076 6.48971,9.9172 0.84982,0.94492 1.48548,1.49777 2.35426,2.08785 3.49764,2.18067 5.05492,2.30401 7.10985,2.08088 2.96015,-0.3157 3.97568,-4.381 4.85551,-8.00337 0.43314,-2.55553 0.0233,-4.64422 -0.69365,-6.56276"
       style="display:inline;fill:none;stroke:#000000;stroke-width:0.93299216;stroke-linecap:butt;stroke-linejoin:miter;stroke-miterlimit:4;stroke-dasharray:none;stroke-opacity:1;enable-background:new" />
    <path
       id="path3837"
       d="m 533.33845,949.59898 c 1.33383,-1.55437 2.01736,-3.1945 1.73411,-4.9621 0.53223,0.93175 1.00978,2.1158 1.64741,2.56108 1.71469,-1.12116 1.86043,-2.75954 1.99423,-4.40185 0.64434,1.01536 1.20479,1.48865 1.73411,1.76074 0.47389,-0.92993 1.41794,-0.88341 2.34105,-0.88037 l 1.77746,0.16006"
       style="display:inline;fill:none;stroke:#000000;stroke-width:0.93299216;stroke-linecap:butt;stroke-linejoin:miter;stroke-miterlimit:4;stroke-dasharray:none;stroke-opacity:1;enable-background:new" />
    <path
       id="path3839"
       d="m 537.42885,928.12391 11.64891,20.03372"
       style="display:inline;fill:none;stroke:#000000;stroke-width:0.93299216;stroke-linecap:butt;stroke-linejoin:miter;stroke-miterlimit:4;stroke-dasharray:none;stroke-opacity:1;enable-background:new" />
    <path
       id="path3841"
       d="m 548.58728,936.66937 c -0.74679,0.16022 -1.4523,0.40297 -1.71668,1.52799 -0.1864,0.92548 0.0868,1.63884 0.55179,2.2637 0.9594,1.05991 2.25415,0.14148 2.67532,-0.52299 0.41459,-0.72971 0.52311,-1.2354 0.57412,-1.7973 -0.0767,-0.614 0.0507,-1.08336 -0.36786,-1.4714 1.01842,0.44819 1.35911,0.40982 1.65537,0.33955 1.02528,-0.15143 1.44751,-0.52524 2.02323,-0.79229"
       style="display:inline;fill:none;stroke:#000000;stroke-width:0.93299216;stroke-linecap:butt;stroke-linejoin:miter;stroke-miterlimit:4;stroke-dasharray:none;stroke-opacity:1;enable-background:new" />
    <path
       id="path3843"
       d="m 534.98586,935.27293 5.02892,-3.44145 c 1.64895,-1.70739 3.25553,-3.41478 4.42198,-5.12216 0.78035,-0.9524 1.5607,-2.28146 2.34105,-3.68156 0.19924,-0.61159 1.05705,-2.01776 -0.60694,-1.60067 -0.69935,0.22184 -1.01832,0.6286 -1.38729,1.04043 -1.03686,1.24196 -1.66723,2.34371 -2.40951,3.47998 -0.47626,0.76561 -1.5839,2.97389 -2.01247,4.28331 -0.47742,1.42743 -0.92478,2.84561 -1.04046,4.16175 -0.0353,1.20014 -0.1715,2.113 0.26011,4.64196 0.27734,2.70484 1.98147,4.85061 2.25435,5.12216 1.91512,1.90582 3.34636,1.89872 5.20233,1.84078 1.689,-0.142 4.05601,-0.26637 5.72255,-1.60068 1.29,-1.2219 2.06232,-2.59313 2.42776,-4.08172 0.56452,-2.27473 0.68986,-4.34676 0.95376,-6.48274 1.04085,0.73892 1.60583,0.4529 2.16764,0.16007 1.40151,-1.13784 1.52089,-2.39401 1.30058,-3.68155 1.08446,0.69181 2.17032,1.3217 3.29481,0.2401 2.06611,-1.36196 1.33088,-2.58252 1.99423,-3.28139 0.88087,0.84567 1.90608,0.49213 2.94799,0 0.68219,-0.71728 1.35154,-1.43118 1.47399,-2.00084 0.55137,-0.16759 1.10042,-0.3366 1.82081,-0.40017 0.6653,-0.11526 0.69075,-0.62427 0.86706,-1.04044 0.6725,-0.19306 1.28789,-0.42378 1.5607,-0.88037 v 0"
       style="display:inline;fill:none;stroke:#000000;stroke-width:0.93299216;stroke-linecap:butt;stroke-linejoin:miter;stroke-miterlimit:4;stroke-dasharray:none;stroke-opacity:1;enable-background:new" />
    <path
       id="path3847"
       d="m 563.4361,923.41793 c -0.52596,0.077 -1.17559,0.49324 -1.09465,0.89037 2.4e-4,0.31311 0.20554,0.38977 0.43352,0.44019 0.4383,-0.02 0.74894,-0.0612 1.20304,-0.2401 0.22229,-0.15188 0.31104,-0.70219 0.18425,-1.12048 -0.12823,-0.27963 -0.16103,-0.61147 -1.04046,-0.4802 -0.4989,0.0261 -0.98188,0.47164 -1.36562,0.7103"
       style="display:inline;fill:none;stroke:#000000;stroke-width:0.93299216;stroke-linecap:butt;stroke-linejoin:miter;stroke-miterlimit:4;stroke-dasharray:none;stroke-opacity:1;enable-background:new" />
  </g>
  <g
     transform="translate(0,-28.362161)"
     style="display:inline"
     id="layer1">
    <path
       id="path2996-7"
       d="m 291.45908,536.69483 c 9.729,32.39035 12.61708,63.34402 17.71973,97.05619 1.60971,23.15219 10.56698,38.95683 24.28571,50 25.68324,16.50103 46.74283,36.70097 65.71429,58.57143 25.07654,34.58887 78.72317,20.94734 93.57142,8.92857 10.44446,-9.54496 21.08281,-24.07971 33.57143,-34.64285 36.59026,-21.89591 35.24422,-21.8864 52.85715,-32.85715 20.71798,-15.50563 40.52758,-38.53048 42.85714,-80 9.43461,9.7107 11.80419,3.3645 16.42857,2.14286 25.25514,-19.67063 37.79767,-46.78278 43.57143,-77.85714 1.45208,-16.52584 0.19079,-31.41105 -18.57143,-35.71429 -20.8705,-3.21275 -30.02426,8.10326 -39.28571,19.28572 l -16.96429,60.71428 -15.17857,-9.28571 10,-33.57143 c -2.78983,-16.27927 -9.85657,-31.57156 -25,-45 11.35026,-24.49248 14.76615,-55.08831 1.42857,-98.57144 -19.36858,-15.90121 -21.15501,-52.13178 -67.85714,-36.42857 -17.01365,-10.95644 -19.9126,-27.55877 -77.85714,-22.14286 -27.371,4.98731 -57.8614,3.29021 -76.42858,27.14286 -16.00835,20.87447 -32.85322,37.88485 -57.85714,43.57143 -15.61593,28.57241 -18.68593,56.34479 -18.57143,83.57144 -2.61625,18.71373 7.57561,37.69426 11.56599,55.08666 z"
       style="display:inline;fill:#ffc5c5;fill-opacity:1;stroke:none;stroke-width:2;stroke-miterlimit:4;stroke-dasharray:none;stroke-opacity:1" />
  </g>
  <g
     transform="translate(0,-28.362161)"
     style="display:inline"
     id="layer9">
    <path
       id="path2996-7-4"
       d="m 297.70518,536.20912 c 9.729,32.39035 21.20337,88.09276 23.27557,95.03588 7.67062,27.69788 13.59743,38.95683 27.31616,50 25.68324,16.50103 53.30883,40.23651 72.28029,62.10697 25.07654,34.58887 57.92838,13.00354 72.77663,0.98477 10.44446,-9.54496 19.65424,-17.65114 32.14286,-28.21428 36.59026,-21.89591 35.24422,-21.8864 52.85715,-32.85715 20.71798,-15.50563 40.52758,-38.53048 42.85714,-80 9.43461,9.7107 11.80419,3.3645 16.42857,2.14286 25.25514,-19.67063 37.79767,-46.78278 43.57143,-77.85714 1.45208,-16.52584 -5.87013,-15.50115 -24.63235,-19.80439 -28.66498,1.55055 -18.43658,4.78191 -23.62834,13.47735 l -19.87745,54.0765 -30.44815,-7.6987 19.09136,-35.08666 c -2.78983,-16.27927 -10.36164,-35.10709 -25.50507,-48.53553 11.35026,-24.49248 14.76615,-55.08831 1.42857,-98.57146 -19.36858,-15.90121 -14.08394,-36.97949 -60.78607,-21.27628 -17.01365,-10.95644 -11.83138,-18.4674 -69.77592,-13.05149 -27.371,4.98731 -62.40709,-10.34685 -80.97427,13.5058 -16.00835,20.87447 -17.70093,44.45084 -42.70485,50.13742 -15.61593,28.57243 -28.28238,44.22298 -28.16788,71.44963 -2.61625,18.71373 -1.51576,32.6435 2.47462,50.0359 z"
       style="display:inline;fill:#ffd5d5;fill-opacity:1;stroke:none;stroke-opacity:1" />
    <path
       id="path4405"
       d="m 671.07142,510.93362 c -4.04918,-2.32104 -5.22658,-5.36003 -12.85714,-6.78572 -8.53816,-1.02585 -16.39772,2.92473 -23.92858,9.28572 -6.05884,8.69048 -7.85453,17.38095 -8.57142,26.07143 -0.34858,8.15048 3.67446,14.11515 5.71428,21.07143 0.26884,-7.05455 0.23789,-13.80931 1.78572,-22.14286 0.25176,-6.68423 3.21909,-12.91587 7.5,-18.92857 6.16809,-9.067 13.20645,-8.1258 20,-10 z"
       style="color:#000000;display:inline;overflow:visible;visibility:visible;fill:#ff9d9d;fill-opacity:0.98823529;stroke:none;stroke-width:1px;marker:none;enable-background:accumulate" />
  </g>
  <g
     transform="translate(0,-28.362161)"
     style="display:inline"
     id="layer4">
    <path
       id="path3019"
       d="m 312.48265,542.28785 56.56854,-16.16244 2.52538,-32.82996 c -40.85945,8.24906 -61.30254,23.29744 -59.09392,48.9924 z"
       style="display:inline;fill:#ffffff;fill-opacity:1;stroke:#000000;stroke-opacity:0.43508771" />
    <path
       id="path3021"
       d="m 467.54107,481.6787 15.15228,33.84011 68.1853,-11.61676 c -12.3248,-15.13498 -26.1725,-29.50851 -83.33758,-22.22335 z"
       style="display:inline;fill:#ffffff;fill-opacity:1;stroke:#000000;stroke-opacity:0.35789475" />
    <path
       id="path3043"
       d="m 465.15986,463.67951 c -10.09302,1.19474 -12.94785,-9.95703 -5.79843,-12.28369 19.67099,-3.80143 35.42267,-3.48174 52.86174,-0.93967 12.27919,1.78991 23.53961,8.25719 35.48326,11.25961 3.43174,1.76033 4.91592,3.76564 6.70386,5.73275 -4.60585,-2.04991 -9.12282,-4.32775 -14.49747,-4.40625 -10.40902,-2.01926 -20.81389,-4.06534 -31.57707,-3.79052 -11.53085,0.8745 -21.35565,0.67391 -31.92332,2.10583 -3.7952,0.51426 -7.00094,1.94292 -11.25257,2.32194 z"
       style="display:inline;fill:#494949;fill-opacity:1;stroke:#474747;stroke-width:1px;stroke-linecap:butt;stroke-linejoin:miter;stroke-opacity:1" />
    <path
       id="path3045"
       d="m 361.87487,473.69173 c 5.08768,-3.25569 2.78507,-12.60266 -2.77015,-10.57249 l -20.44219,8.49894 c -6.9417,4.92995 -13.67187,11.08155 -18.70569,15.26451 -11.55749,9.60396 -18.38465,13.20512 -26.2993,19.50416 l 19.8216,-8.93353 c 4.41483,-2.05456 13.11462,-8.0203 20.88751,-11.11598 10.8856,-3.00274 20.17711,-6.86416 27.50822,-12.64561 z"
       style="display:inline;fill:#494949;fill-opacity:1;stroke:#4c4c4c;stroke-width:1px;stroke-linecap:butt;stroke-linejoin:miter;stroke-opacity:1" />
    <path
       id="path3055"
       d="m 400.14395,534.57261 -13.13288,46.09681 c -9.20807,25.62567 5.59547,35.61011 16.25001,32.5 23.17838,-9.92821 10.59492,-6.2845 21.74981,-12.52231 0,0 4.59672,-8.4028 17.36258,-11.54368 7.31079,-0.44181 1.4264,12.95649 1.4264,12.95649 -6.9519,1.8043 -3.96724,-2.15292 -12.46194,-0.34137"
       style="display:inline;fill:none;stroke:#ff7c8d;stroke-width:5.69999981;stroke-linecap:round;stroke-linejoin:miter;stroke-miterlimit:4;stroke-dasharray:none;stroke-opacity:0.5884774" />
    <path
       id="path3057"
       d="m 396.32532,659.97062 c 0,0 13.47623,-4.77516 21.38396,-7.01206 7.90774,-2.23691 16.40011,-3.11473 30.95271,-1.88805 7.15712,1.05099 17.86893,-9.09817 17.86893,-9.09817"
       style="display:inline;fill:none;stroke:#e5a0a0;stroke-width:3.70000005;stroke-linecap:round;stroke-linejoin:round;stroke-miterlimit:4;stroke-dasharray:none;stroke-opacity:1" />
    <path
       id="path4001"
       d="m 370.63166,493.05457 c -29.42744,8.8054 -59.67466,15.75802 -57.57869,47.7424"
       style="color:#000000;display:inline;overflow:visible;visibility:visible;fill:none;stroke:#3f3f3f;stroke-width:2.9000001;stroke-linecap:round;stroke-linejoin:miter;stroke-miterlimit:4;stroke-dasharray:none;stroke-dashoffset:0;stroke-opacity:1;marker:none;enable-background:accumulate" />
    <path
       id="path4003"
       d="m 468.92856,482.36219 c 29.65901,-2.91171 58.54638,-8.25666 82.67857,21.07143"
       style="color:#000000;display:inline;overflow:visible;visibility:visible;fill:none;stroke:#3d3d3d;stroke-width:3.0999999;stroke-linecap:round;stroke-linejoin:bevel;stroke-miterlimit:4;stroke-dasharray:none;stroke-dashoffset:0;stroke-opacity:1;marker:none;enable-background:accumulate" />
    <circle
       r="0"
       class="fil12"
       transform="matrix(-0.03509824,0.01304329,0.01277469,0.03583617,199.25259,504.35443)"
       id="circle57"
       cx="0"
       cy="0"
       style="fill:#805c51;fill-rule:evenodd" />
    <ellipse
       ry="3.2430873"
       rx="3.1763065"
       class="fil7"
       cx="350.67755"
       cy="512.55396"
       id="circle70"
       style="fill:#fefefe;fill-rule:evenodd" />
    <ellipse
       ry="1.6738515"
       rx="1.639384"
       class="fil10"
       cx="347.39877"
       cy="510.30472"
       id="circle72"
       style="fill:#e8e9ea;fill-rule:evenodd" />
    <path
       cx="0"
       cy="0"
       r="341"
       class="fil12"
       id="circle57-0"
       d="m 483.92207,501.29041 c 2.40584,6.74899 9.71465,10.2288 16.32467,7.77237 6.61002,-2.45643 10.01817,-9.9189 7.61233,-16.66789 -2.40585,-6.749 -9.71465,-10.22881 -16.32467,-7.77238 -6.61002,2.45644 -10.01818,9.91891 -7.61233,16.6679 z"
       style="fill:#805c51;fill-rule:evenodd" />
    <ellipse
       ry="3.2430873"
       rx="3.1763065"
       class="fil7"
       cx="495.88696"
       cy="493.61359"
       id="circle70-6"
       style="fill:#fefefe;fill-rule:evenodd" />
    <ellipse
       ry="1.6738515"
       rx="1.639384"
       class="fil10"
       cx="492.60818"
       cy="491.36435"
       id="circle72-4"
       style="fill:#e8e9ea;fill-rule:evenodd" />
    <path
       cx="0"
       cy="0"
       r="341"
       class="fil12"
       id="circle57-0-8"
       d="m 335.49858,522.87066 c 2.40585,6.74899 9.71465,10.2288 16.32467,7.77237 6.61002,-2.45643 10.01818,-9.9189 7.61233,-16.6679 -2.40584,-6.74899 -9.71465,-10.2288 -16.32467,-7.77237 -6.61002,2.45643 -10.01817,9.9189 -7.61233,16.6679 z"
       style="display:inline;fill:#805c51;fill-rule:evenodd" />
    <ellipse
       class="fil7"
       cx="347.46347"
       cy="515.19379"
       id="circle70-6-2"
       style="display:inline;fill:#fefefe;fill-rule:evenodd"
       rx="3.1763065"
       ry="3.2430873" />
    <ellipse
       class="fil10"
       cx="344.18472"
       cy="512.94458"
       id="circle72-4-9"
       style="display:inline;fill:#e8e9ea;fill-rule:evenodd"
       rx="1.639384"
       ry="1.6738515" />
  </g>
  <g
     transform="translate(0,-28.362161)"
     style="display:inline"
     id="layer5">
    <path
       id="path4164"
       d="m 613.57143,309.50503 c 0,0 21.27355,17.85872 27.14286,30 8.82468,18.25476 10.47931,39.72979 10,60 C 650.12699,424.34228 635,472.36218 635,472.36218 c -1.4975,-30 5.87788,-62.86829 -7.14285,-90 -9.61966,-20.04478 -3.08254,-28.38345 -48.57143,-45.71429 z"
       style="color:#000000;display:inline;overflow:visible;visibility:visible;fill:#454545;fill-opacity:1;stroke:none;stroke-width:1px;marker:none;enable-background:accumulate" />
  </g>
  <g
     style="display:inline"
     transform="translate(0,-28.362161)"
     id="layer10">
    <path
       id="path4403"
       d="m 621.42856,592.36219 c 2.48438,-1.87944 5.09252,-2.92705 7.94644,-4.55357 6.70911,-3.23331 6.94918,2.92443 9.91071,4.55357 7.24537,-3.23495 11.60368,-10.07872 16.07142,-16.78571 6.04735,-8.88109 10.85243,-18.38331 13.57143,-28.92857 2.89354,-7.87092 3.72452,-12.03798 4.64286,-18.21429"
       style="color:#000000;display:inline;overflow:visible;visibility:visible;fill:none;stroke:#ff8e9d;stroke-width:3.5999999;stroke-linecap:round;stroke-linejoin:miter;stroke-miterlimit:4;stroke-dasharray:none;stroke-dashoffset:0;stroke-opacity:1;marker:none;enable-background:accumulate" />
  </g>
  <g
     style="display:none"
     transform="translate(0,-28.362161)"
     id="layer15">
    <path
       id="path7628"
       d="m 301.24652,373.68039 c -8.08123,40.06939 25.83504,21.91758 11.6929,47.84483 13.13199,-13.80541 37.43873,-14.74317 35.92785,-39.97717 6.80597,-20.50684 41.77956,-36.53029 59.0388,5.27666 1.53601,-17.70571 9.64486,-50.85575 22.22336,-52.79407 26.49175,-8.58135 11.92956,-10.3167 26.34446,-7.68383 l 17.17259,16.16244 c -12.49092,20.43832 12.85004,42.74486 20.20305,56.56854 8.69904,-19.59561 16.33984,-35.92975 33.33504,-39.39595 4.5724,16.0538 2.75664,33.04104 -2.02031,47.47717 7.75915,-4.20792 19.42566,-1.7175 21.21321,-16.16244 17.71735,-0.63992 20.20937,-22.21466 30.30457,-33.33503 -47.81389,-26.60069 -104.71914,-55.22167 -152.53303,-81.82236 -57.57869,34.34519 -106.06602,70.71068 -163.64471,105.05587 1.00591,37.72297 -24.16355,134.99149 -1.6124,118.85136 2.23387,30.25562 0.53917,-10.91734 16.70161,-21.01886 -23.81651,3.16059 -7.86894,-10.77896 4.10369,-30.15228 33.24222,-27.05005 -0.8554,-58.79838 21.54932,-74.89488 z"
       style="display:inline;fill:#2a2a2a;fill-opacity:1;fill-rule:evenodd;stroke:none;stroke-width:1px;stroke-linecap:butt;stroke-linejoin:miter;stroke-opacity:1" />
  </g>
</svg>
