<svg xmlns="http://www.w3.org/2000/svg" xmlns:xlink="http://www.w3.org/1999/xlink" version="1.1" width="256" height="256" viewBox="0 0 256 256" xml:space="preserve">
<g style="stroke: none; stroke-width: 0; stroke-dasharray: none; stroke-linecap: butt; stroke-linejoin: miter; stroke-miterlimit: 10; fill: none; fill-rule: nonzero; opacity: 1;" transform="translate(1.4065934065934016 1.4065934065934016) scale(2.81 2.81)">
	<path d="M 72.306 78.594 H 4.442 C 2.541 78.594 1 77.053 1 75.152 V 32.991 c 0 -1.901 1.541 -3.442 3.442 -3.442 h 67.864 c 1.901 0 3.442 1.541 3.442 3.442 v 42.161 C 75.748 77.053 74.207 78.594 72.306 78.594 z" style="stroke: none; stroke-width: 1; stroke-dasharray: none; stroke-linecap: butt; stroke-linejoin: miter; stroke-miterlimit: 10; fill: rgb(87,179,254); fill-rule: nonzero; opacity: 1;" transform=" matrix(1 0 0 1 0 0) " stroke-linecap="round"/>
	<rect x="1" y="39.41" rx="0" ry="0" width="74.75" height="10.64" style="stroke: none; stroke-width: 1; stroke-dasharray: none; stroke-linecap: butt; stroke-linejoin: miter; stroke-miterlimit: 10; fill: rgb(235,235,241); fill-rule: nonzero; opacity: 1;" transform=" matrix(1 0 0 1 0 0) "/>
	<rect x="52.66" y="58.09" rx="0" ry="0" width="14.88" height="10.64" style="stroke: none; stroke-width: 1; stroke-dasharray: none; stroke-linecap: butt; stroke-linejoin: miter; stroke-miterlimit: 10; fill: rgb(254,204,89); fill-rule: nonzero; opacity: 1;" transform=" matrix(1 0 0 1 0 0) "/>
	<path d="M 86.136 22.856 l -66.899 -11.4 c -1.874 -0.319 -3.652 0.941 -3.972 2.815 l -2.603 15.278 h 59.644 c 1.901 0 3.442 1.541 3.442 3.442 v 37.847 l 2.149 0.366 c 1.874 0.319 3.652 -0.941 3.972 -2.815 l 7.082 -41.562 C 89.27 24.953 88.01 23.175 86.136 22.856 z" style="stroke: none; stroke-width: 1; stroke-dasharray: none; stroke-linecap: butt; stroke-linejoin: miter; stroke-miterlimit: 10; fill: rgb(254,204,89); fill-rule: nonzero; opacity: 1;" transform=" matrix(1 0 0 1 0 0) " stroke-linecap="round"/>
	<path d="M 72.306 79.594 H 4.442 C 1.992 79.594 0 77.601 0 75.152 V 32.991 c 0 -2.449 1.993 -4.442 4.442 -4.442 h 67.864 c 2.449 0 4.442 1.993 4.442 4.442 v 42.161 C 76.748 77.601 74.755 79.594 72.306 79.594 z M 4.442 30.549 C 3.095 30.549 2 31.644 2 32.991 v 42.161 c 0 1.347 1.096 2.442 2.442 2.442 h 67.864 c 1.347 0 2.442 -1.096 2.442 -2.442 V 32.991 c 0 -1.347 -1.096 -2.442 -2.442 -2.442 H 4.442 z" style="stroke: none; stroke-width: 1; stroke-dasharray: none; stroke-linecap: butt; stroke-linejoin: miter; stroke-miterlimit: 10; fill: rgb(0,0,0); fill-rule: nonzero; opacity: 1;" transform=" matrix(1 0 0 1 0 0) " stroke-linecap="round"/>
	<path d="M 75.748 51.049 H 1 c -0.552 0 -1 -0.447 -1 -1 V 39.406 c 0 -0.552 0.448 -1 1 -1 h 74.749 c 0.553 0 1 0.448 1 1 v 10.643 C 76.748 50.602 76.301 51.049 75.748 51.049 z M 2 49.049 h 72.749 v -8.643 H 2 V 49.049 z" style="stroke: none; stroke-width: 1; stroke-dasharray: none; stroke-linecap: butt; stroke-linejoin: miter; stroke-miterlimit: 10; fill: rgb(0,0,0); fill-rule: nonzero; opacity: 1;" transform=" matrix(1 0 0 1 0 0) " stroke-linecap="round"/>
	<path d="M 67.539 69.737 H 52.657 c -0.553 0 -1 -0.447 -1 -1 V 58.093 c 0 -0.553 0.447 -1 1 -1 h 14.882 c 0.553 0 1 0.447 1 1 v 10.644 C 68.539 69.289 68.092 69.737 67.539 69.737 z M 53.657 67.737 h 12.882 v -8.644 H 53.657 V 67.737 z" style="stroke: none; stroke-width: 1; stroke-dasharray: none; stroke-linecap: butt; stroke-linejoin: miter; stroke-miterlimit: 10; fill: rgb(0,0,0); fill-rule: nonzero; opacity: 1;" transform=" matrix(1 0 0 1 0 0) " stroke-linecap="round"/>
	<path d="M 41.53 59.093 H 9.209 c -0.552 0 -1 -0.447 -1 -1 c 0 -0.553 0.448 -1 1 -1 H 41.53 c 0.552 0 1 0.447 1 1 C 42.53 58.646 42.082 59.093 41.53 59.093 z" style="stroke: none; stroke-width: 1; stroke-dasharray: none; stroke-linecap: butt; stroke-linejoin: miter; stroke-miterlimit: 10; fill: rgb(0,0,0); fill-rule: nonzero; opacity: 1;" transform=" matrix(1 0 0 1 0 0) " stroke-linecap="round"/>
	<path d="M 13.048 65.489 H 9.209 c -0.552 0 -1 -0.447 -1 -1 c 0 -0.553 0.448 -1 1 -1 h 3.839 c 0.552 0 1 0.447 1 1 C 14.048 65.042 13.6 65.489 13.048 65.489 z" style="stroke: none; stroke-width: 1; stroke-dasharray: none; stroke-linecap: butt; stroke-linejoin: miter; stroke-miterlimit: 10; fill: rgb(0,0,0); fill-rule: nonzero; opacity: 1;" transform=" matrix(1 0 0 1 0 0) " stroke-linecap="round"/>
	<path d="M 22.542 65.489 h -3.839 c -0.552 0 -1 -0.447 -1 -1 c 0 -0.553 0.448 -1 1 -1 h 3.839 c 0.552 0 1 0.447 1 1 C 23.542 65.042 23.094 65.489 22.542 65.489 z" style="stroke: none; stroke-width: 1; stroke-dasharray: none; stroke-linecap: butt; stroke-linejoin: miter; stroke-miterlimit: 10; fill: rgb(0,0,0); fill-rule: nonzero; opacity: 1;" transform=" matrix(1 0 0 1 0 0) " stroke-linecap="round"/>
	<path d="M 32.036 65.489 h -3.839 c -0.552 0 -1 -0.447 -1 -1 c 0 -0.553 0.448 -1 1 -1 h 3.839 c 0.552 0 1 0.447 1 1 C 33.036 65.042 32.588 65.489 32.036 65.489 z" style="stroke: none; stroke-width: 1; stroke-dasharray: none; stroke-linecap: butt; stroke-linejoin: miter; stroke-miterlimit: 10; fill: rgb(0,0,0); fill-rule: nonzero; opacity: 1;" transform=" matrix(1 0 0 1 0 0) " stroke-linecap="round"/>
	<path d="M 41.53 65.489 h -3.839 c -0.552 0 -1 -0.447 -1 -1 c 0 -0.553 0.448 -1 1 -1 h 3.839 c 0.552 0 1 0.447 1 1 C 42.53 65.042 42.082 65.489 41.53 65.489 z" style="stroke: none; stroke-width: 1; stroke-dasharray: none; stroke-linecap: butt; stroke-linejoin: miter; stroke-miterlimit: 10; fill: rgb(0,0,0); fill-rule: nonzero; opacity: 1;" transform=" matrix(1 0 0 1 0 0) " stroke-linecap="round"/>
	<path d="M 78.485 72.254 c -0.251 0 -0.504 -0.021 -0.756 -0.064 l -2.148 -0.366 c -0.48 -0.081 -0.832 -0.498 -0.832 -0.985 V 32.991 c 0 -1.347 -1.096 -2.442 -2.442 -2.442 H 12.661 c -0.294 0 -0.574 -0.13 -0.764 -0.355 s -0.271 -0.522 -0.222 -0.813 l 2.604 -15.278 c 0.412 -2.415 2.714 -4.046 5.126 -3.633 l 66.899 11.4 c 2.414 0.412 4.044 2.711 3.632 5.126 l -7.082 41.561 c -0.199 1.17 -0.842 2.191 -1.81 2.878 C 80.284 71.973 79.397 72.254 78.485 72.254 z M 76.748 69.994 l 1.316 0.225 c 1.333 0.225 2.592 -0.67 2.818 -1.998 l 7.082 -41.561 c 0.226 -1.328 -0.67 -2.592 -1.997 -2.818 l -66.899 -11.4 c -1.33 -0.227 -2.592 0.669 -2.818 1.997 l -2.404 14.11 h 58.459 c 2.449 0 4.442 1.993 4.442 4.442 V 69.994 z" style="stroke: none; stroke-width: 1; stroke-dasharray: none; stroke-linecap: butt; stroke-linejoin: miter; stroke-miterlimit: 10; fill: rgb(0,0,0); fill-rule: nonzero; opacity: 1;" transform=" matrix(1 0 0 1 0 0) " stroke-linecap="round"/>
</g>
</svg>